<?xml version="1.0" encoding="UTF-8" standalone="no"?>
<svg
   xmlns:dc="http://purl.org/dc/elements/1.1/"
   xmlns:cc="http://creativecommons.org/ns#"
   xmlns:rdf="http://www.w3.org/1999/02/22-rdf-syntax-ns#"
   xmlns:svg="http://www.w3.org/2000/svg"
   xmlns="http://www.w3.org/2000/svg"
   xmlns:sodipodi="http://sodipodi.sourceforge.net/DTD/sodipodi-0.dtd"
   xmlns:inkscape="http://www.inkscape.org/namespaces/inkscape"
   inkscape:version="1.0 (6e3e5246a0, 2020-05-07)"
   sodipodi:docname="coronavirus-belem-de-maria-logo.svg"
   width="464.28214mm"
   height="66.595001mm"
   viewBox="0 0 464.28214 66.595001"
   version="1.1"
   id="svg1152">
  <sodipodi:namedview
     inkscape:current-layer="layer1"
     inkscape:window-maximized="1"
     inkscape:window-y="27"
     inkscape:window-x="47"
     inkscape:cy="125.84882"
     inkscape:cx="679.4788"
     inkscape:zoom="0.65649737"
     showgrid="false"
     id="namedview57"
     inkscape:window-height="713"
     inkscape:window-width="1319"
     inkscape:pageshadow="2"
     inkscape:pageopacity="0"
     guidetolerance="10"
     gridtolerance="10"
     objecttolerance="10"
     borderopacity="1"
     bordercolor="#666666"
     pagecolor="#ffffff" />
  <defs
     id="defs1146" />
  <metadata
     id="metadata1149">
    <rdf:RDF>
      <cc:Work
         rdf:about="">
        <dc:format>image/svg+xml</dc:format>
        <dc:type
           rdf:resource="http://purl.org/dc/dcmitype/StillImage" />
        <dc:title />
      </cc:Work>
    </rdf:RDF>
  </metadata>
  <g
     id="layer1"
     transform="translate(-45.432362,-47.89363)">
    <g
       aria-label="CORONAVÍRUS"
       id="text1480"
       style="font-weight:bold;font-size:31.6139px;line-height:1;font-family:'DM Sans';-inkscape-font-specification:'DM Sans Bold';text-align:justify;fill:#394364;fill-opacity:1;stroke:none;stroke-width:2.53159;stroke-linecap:round;stroke-linejoin:round;paint-order:stroke fill markers">
      <path
         d="m 137.86286,78.449954 q -3.25623,0 -5.62728,-1.422626 -2.33942,-1.454239 -3.63559,-4.014965 -1.29617,-2.592339 -1.29617,-6.006641 0,-3.382687 1.29617,-5.943413 1.29617,-2.592339 3.63559,-4.046579 2.37105,-1.454239 5.62728,-1.454239 3.79367,0 6.16471,1.833606 2.40265,1.801992 3.06655,5.058224 h -2.9401 q -0.50582,-2.054904 -2.08651,-3.287846 -1.54908,-1.264556 -4.20465,-1.264556 -2.37104,0 -4.14142,1.106487 -1.77038,1.074872 -2.75041,3.129776 -0.94842,2.023289 -0.94842,4.86854 0,2.845251 0.94842,4.900155 0.98003,2.023289 2.75041,3.129776 1.77038,1.074872 4.14142,1.074872 2.65557,0 4.20465,-1.201328 1.58069,-1.232942 2.08651,-3.256231 h 2.9401 q -0.6639,3.193003 -3.06655,4.994996 -2.37104,1.801992 -6.16471,1.801992 z"
         style="font-style:normal;font-variant:normal;font-weight:normal;font-stretch:normal;font-family:'DM Sans';-inkscape-font-specification:'DM Sans';fill:#394364;fill-opacity:1;stroke-width:2.53159"
         id="path4062" />
      <path
         d="m 160.99485,78.449954 q -3.25623,0 -5.72212,-1.422626 -2.43427,-1.454239 -3.82528,-4.046579 -1.3594,-2.592339 -1.3594,-5.975027 0,-3.382687 1.3594,-5.943413 1.39101,-2.592339 3.82528,-4.046579 2.46589,-1.454239 5.72212,-1.454239 3.28784,0 5.72211,1.454239 2.46589,1.45424 3.82529,4.046579 1.35939,2.560726 1.35939,5.943413 0,3.382688 -1.35939,5.975027 -1.3594,2.59234 -3.82529,4.046579 -2.43427,1.422626 -5.72211,1.422626 z m 0,-2.339429 q 2.43427,0 4.26787,-1.074872 1.86522,-1.106487 2.87687,-3.129776 1.04326,-2.054904 1.04326,-4.900155 0,-2.845251 -1.04326,-4.86854 -1.01165,-2.02329 -2.87687,-3.098162 -1.8336,-1.106487 -4.26787,-1.106487 -2.43427,0 -4.29949,1.106487 -1.83361,1.074872 -2.87687,3.098162 -1.01164,2.023289 -1.01164,4.86854 0,2.845251 1.01164,4.900155 1.04326,2.023289 2.87687,3.129776 1.86522,1.074872 4.29949,1.074872 z"
         style="font-style:normal;font-variant:normal;font-weight:normal;font-stretch:normal;font-family:'DM Sans';-inkscape-font-specification:'DM Sans';fill:#394364;fill-opacity:1;stroke-width:2.53159"
         id="path4064" />
      <path
         d="M 175.70173,78.070587 V 55.940858 h 7.14474 q 2.59234,0 4.23627,0.853575 1.64392,0.853575 2.43427,2.339429 0.79034,1.485853 0.79034,3.287845 0,2.086517 -1.1381,3.762054 -1.10648,1.675537 -3.47752,2.371042 l 4.83692,9.515784 h -3.12977 L 182.9097,68.93417 h -0.18968 -4.36272 v 9.136417 z m 2.65557,-11.222934 h 4.29949 q 2.56073,0 3.73044,-1.232942 1.16972,-1.232942 1.16972,-3.16139 0,-1.960062 -1.16972,-3.098162 -1.1381,-1.169714 -3.76205,-1.169714 h -4.26788 z"
         style="font-style:normal;font-variant:normal;font-weight:normal;font-stretch:normal;font-family:'DM Sans';-inkscape-font-specification:'DM Sans';fill:#394364;fill-opacity:1;stroke-width:2.53159"
         id="path4066" />
      <path
         d="m 204.52571,78.449954 q -3.25624,0 -5.72212,-1.422626 -2.43427,-1.454239 -3.82528,-4.046579 -1.3594,-2.592339 -1.3594,-5.975027 0,-3.382687 1.3594,-5.943413 1.39101,-2.592339 3.82528,-4.046579 2.46588,-1.454239 5.72212,-1.454239 3.28784,0 5.72211,1.454239 2.46589,1.45424 3.82528,4.046579 1.3594,2.560726 1.3594,5.943413 0,3.382688 -1.3594,5.975027 -1.35939,2.59234 -3.82528,4.046579 -2.43427,1.422626 -5.72211,1.422626 z m 0,-2.339429 q 2.43427,0 4.26787,-1.074872 1.86522,-1.106487 2.87687,-3.129776 1.04326,-2.054904 1.04326,-4.900155 0,-2.845251 -1.04326,-4.86854 -1.01165,-2.02329 -2.87687,-3.098162 -1.8336,-1.106487 -4.26787,-1.106487 -2.43428,0 -4.2995,1.106487 -1.8336,1.074872 -2.87686,3.098162 -1.01164,2.023289 -1.01164,4.86854 0,2.845251 1.01164,4.900155 1.04326,2.023289 2.87686,3.129776 1.86522,1.074872 4.2995,1.074872 z"
         style="font-style:normal;font-variant:normal;font-weight:normal;font-stretch:normal;font-family:'DM Sans';-inkscape-font-specification:'DM Sans';fill:#394364;fill-opacity:1;stroke-width:2.53159"
         id="path4068" />
      <path
         d="M 219.23259,78.070587 V 55.940858 h 2.65556 l 11.79199,17.735397 V 55.940858 h 2.65557 v 22.129729 h -2.65557 L 221.88815,60.33519 v 17.735397 z"
         style="font-style:normal;font-variant:normal;font-weight:normal;font-stretch:normal;font-family:'DM Sans';-inkscape-font-specification:'DM Sans';fill:#394364;fill-opacity:1;stroke-width:2.53159"
         id="path4070" />
      <path
         d="m 239.63788,78.070587 8.15638,-22.129729 h 2.81364 l 8.12477,22.129729 h -2.81363 l -2.02329,-5.690502 h -9.42095 l -2.0549,5.690502 z m 5.62727,-7.840247 h 7.84025 l -3.92012,-10.938409 z"
         style="font-style:normal;font-variant:normal;font-weight:normal;font-stretch:normal;font-family:'DM Sans';-inkscape-font-specification:'DM Sans';fill:#394364;fill-opacity:1;stroke-width:2.53159"
         id="path4072" />
      <path
         d="m 265.60574,78.070587 -8.31445,-22.129729 h 2.87686 l 6.98667,19.316092 7.0499,-19.316092 h 2.81364 l -8.31446,22.129729 z"
         style="font-style:normal;font-variant:normal;font-weight:normal;font-stretch:normal;font-family:'DM Sans';-inkscape-font-specification:'DM Sans';fill:#394364;fill-opacity:1;stroke-width:2.53159"
         id="path4074" />
      <path
         d="M 280.0523,78.070587 V 55.940858 h 2.65557 v 22.129729 z m -0.0948,-23.425899 v -1.991676 l 6.63892,-4.014965 v 2.307815 z"
         style="font-style:normal;font-variant:normal;font-weight:normal;font-stretch:normal;font-family:'DM Sans';-inkscape-font-specification:'DM Sans';fill:#394364;fill-opacity:1;stroke-width:2.53159"
         id="path4076" />
      <path
         d="M 287.40007,78.070587 V 55.940858 h 7.14474 q 2.59234,0 4.23626,0.853575 1.64392,0.853575 2.43427,2.339429 0.79035,1.485853 0.79035,3.287845 0,2.086517 -1.1381,3.762054 -1.10649,1.675537 -3.47753,2.371042 l 4.83693,9.515784 h -3.12978 l -4.48917,-9.136417 h -0.18969 -4.36272 v 9.136417 z m 2.65556,-11.222934 h 4.29949 q 2.56073,0 3.73044,-1.232942 1.16972,-1.232942 1.16972,-3.16139 0,-1.960062 -1.16972,-3.098162 -1.1381,-1.169714 -3.76205,-1.169714 h -4.26788 z"
         style="font-style:normal;font-variant:normal;font-weight:normal;font-stretch:normal;font-family:'DM Sans';-inkscape-font-specification:'DM Sans';fill:#394364;fill-opacity:1;stroke-width:2.53159"
         id="path4078" />
      <path
         d="m 314.16914,78.449954 q -2.27621,0 -4.14143,-0.885189 -1.8336,-0.916803 -2.94009,-2.813637 -1.10648,-1.896834 -1.10648,-4.836927 V 55.940858 h 2.65556 v 14.004957 q 0,3.224618 1.54908,4.678857 1.54909,1.45424 4.04658,1.45424 2.4975,0 4.01497,-1.45424 1.51747,-1.454239 1.51747,-4.678857 V 55.940858 h 2.65556 v 13.973343 q 0,2.940093 -1.10648,4.836927 -1.10649,1.896834 -2.97171,2.813637 -1.86522,0.885189 -4.17303,0.885189 z"
         style="font-style:normal;font-variant:normal;font-weight:normal;font-stretch:normal;font-family:'DM Sans';-inkscape-font-specification:'DM Sans';fill:#394364;fill-opacity:1;stroke-width:2.53159"
         id="path4080" />
      <path
         d="m 333.96733,78.449954 q -2.43427,0 -4.23626,-0.885189 -1.80199,-0.885189 -2.78202,-2.465884 -0.98004,-1.580695 -0.98004,-3.667213 h 2.78203 q 0,1.29617 0.60066,2.402657 0.60067,1.074872 1.73877,1.738764 1.16971,0.632278 2.87686,0.632278 2.24459,0 3.47753,-1.074872 1.23294,-1.074873 1.23294,-2.687182 0,-1.327784 -0.56905,-2.118131 -0.56905,-0.821962 -1.54908,-1.327784 -0.94842,-0.505822 -2.21297,-0.885189 -1.23294,-0.379367 -2.59234,-0.853575 -2.56073,-0.88519 -3.79367,-2.181359 -1.23294,-1.327784 -1.23294,-3.445915 -0.0316,-1.770379 0.82196,-3.129776 0.85357,-1.391012 2.40266,-2.149746 1.58069,-0.790347 3.73044,-0.790347 2.11813,0 3.66721,0.790347 1.58069,0.790348 2.43427,2.181359 0.88519,1.391012 0.9168,3.16139 h -2.78202 q 0,-0.916803 -0.47421,-1.801992 -0.47421,-0.916803 -1.45424,-1.485853 -0.94842,-0.56905 -2.40266,-0.56905 -1.80199,-0.03161 -2.9717,0.916803 -1.1381,0.948417 -1.1381,2.623953 0,1.422626 0.79034,2.181359 0.82197,0.758734 2.27621,1.264556 1.45423,0.474209 3.35107,1.106487 1.58069,0.56905 2.84525,1.327784 1.26456,0.758733 1.96006,1.960061 0.72712,1.201329 0.72712,3.066549 0,1.580695 -0.82196,3.00332 -0.82196,1.391012 -2.4975,2.276201 -1.64392,0.885189 -4.14142,0.885189 z"
         style="font-style:normal;font-variant:normal;font-weight:normal;font-stretch:normal;font-family:'DM Sans';-inkscape-font-specification:'DM Sans';fill:#394364;fill-opacity:1;stroke-width:2.53159"
         id="path4082" />
      <text
         id="text899"
         y="111.60541"
         x="124.21845"
         style="font-style:normal;font-weight:normal;font-size:31.75px;line-height:1.25;font-family:sans-serif;fill:#305ff0;fill-opacity:1;stroke:none;stroke-width:0.669816"
         xml:space="preserve"><tspan
           style="font-style:normal;font-variant:normal;font-weight:normal;font-stretch:normal;font-size:31.75px;font-family:sans-serif;-inkscape-font-specification:sans-serif;fill:#305ff0;fill-opacity:1;stroke-width:0.669816"
           y="111.60541"
           x="124.21845"
           id="tspan897"
           sodipodi:role="line">BELÉM DE MARIA</tspan></text>
    </g>
    <g
       id="g1569"
       transform="matrix(2.0350116,0,0,2.0350116,789.37016,207.35044)">
      <path
         id="path1482"
         style="color:#000000;font-style:normal;font-variant:normal;font-weight:normal;font-stretch:normal;font-size:medium;line-height:normal;font-family:sans-serif;font-variant-ligatures:normal;font-variant-position:normal;font-variant-caps:normal;font-variant-numeric:normal;font-variant-alternates:normal;font-variant-east-asian:normal;font-feature-settings:normal;font-variation-settings:normal;text-indent:0;text-align:start;text-decoration:none;text-decoration-line:none;text-decoration-style:solid;text-decoration-color:#000000;letter-spacing:normal;word-spacing:normal;text-transform:none;writing-mode:lr-tb;direction:ltr;text-orientation:mixed;dominant-baseline:auto;baseline-shift:baseline;text-anchor:start;white-space:normal;shape-padding:0;shape-margin:0;inline-size:0;clip-rule:nonzero;display:inline;overflow:visible;visibility:visible;isolation:auto;mix-blend-mode:normal;color-interpolation:sRGB;color-interpolation-filters:linearRGB;solid-color:#000000;solid-opacity:1;vector-effect:none;fill:#394364;fill-opacity:1;fill-rule:nonzero;stroke:none;stroke-width:1.18564;stroke-linecap:round;stroke-linejoin:round;stroke-miterlimit:4;stroke-dasharray:none;stroke-dashoffset:0;stroke-opacity:1;paint-order:stroke fill markers;color-rendering:auto;image-rendering:auto;shape-rendering:auto;text-rendering:auto;enable-background:accumulate;stop-color:#000000"
         d="m -359.3448,-74.072736 a 15.769489,15.769489 0 0 0 -0.0779,0.06644 15.769489,15.769489 0 0 0 -0.11318,0.09656 15.769489,15.769489 0 0 0 -0.11111,0.09761 15.769489,15.769489 0 0 0 -0.11109,0.09863 15.769489,15.769489 0 0 0 -0.11007,0.09968 15.769489,15.769489 0 0 0 -0.10902,0.100721 15.769489,15.769489 0 0 0 -0.10797,0.102792 15.769489,15.769489 0 0 0 -0.10695,0.101746 15.769489,15.769489 0 0 0 -0.0322,0.03219 l 7.39987,8.329139 a 4.6696283,4.6696283 0 0 1 0.86074,-0.816094 z m 20.27671,0 -7.38326,8.309412 a 4.6696283,4.6696283 0 0 1 0.86178,0.816094 l 7.39987,-8.329141 a 15.769489,15.769489 0 0 0 -0.0177,-0.01869 15.769489,15.769489 0 0 0 -0.10695,-0.102791 15.769489,15.769489 0 0 0 -0.10797,-0.101747 15.769489,15.769489 0 0 0 -0.10902,-0.100721 15.769489,15.769489 0 0 0 -0.10902,-0.100722 15.769489,15.769489 0 0 0 -0.11109,-0.09863 15.769489,15.769489 0 0 0 -0.11214,-0.09759 15.769489,15.769489 0 0 0 -0.11213,-0.09761 15.769489,15.769489 0 0 0 -0.0924,-0.07788 z" />
      <path
         style="color:#000000;font-style:normal;font-variant:normal;font-weight:normal;font-stretch:normal;font-size:medium;line-height:normal;font-family:sans-serif;font-variant-ligatures:normal;font-variant-position:normal;font-variant-caps:normal;font-variant-numeric:normal;font-variant-alternates:normal;font-variant-east-asian:normal;font-feature-settings:normal;font-variation-settings:normal;text-indent:0;text-align:start;text-decoration:none;text-decoration-line:none;text-decoration-style:solid;text-decoration-color:#000000;letter-spacing:normal;word-spacing:normal;text-transform:none;writing-mode:lr-tb;direction:ltr;text-orientation:mixed;dominant-baseline:auto;baseline-shift:baseline;text-anchor:start;white-space:normal;shape-padding:0;shape-margin:0;inline-size:0;clip-rule:nonzero;display:inline;overflow:visible;visibility:visible;isolation:auto;mix-blend-mode:normal;color-interpolation:sRGB;color-interpolation-filters:linearRGB;solid-color:#000000;solid-opacity:1;vector-effect:none;fill:#394364;fill-opacity:1;fill-rule:nonzero;stroke:none;stroke-width:1.18565;stroke-linecap:round;stroke-linejoin:round;stroke-miterlimit:4;stroke-dasharray:none;stroke-dashoffset:0;stroke-opacity:1;paint-order:stroke fill markers;color-rendering:auto;image-rendering:auto;shape-rendering:auto;text-rendering:auto;enable-background:accumulate;stop-color:#000000;stop-opacity:1;opacity:1"
         d="M -349.20703 -78.357422 C -358.23667 -78.357422 -365.56836 -71.023776 -365.56836 -61.994141 C -365.56836 -52.964506 -358.23667 -45.632812 -349.20703 -45.632812 C -340.21217 -45.632812 -332.90969 -52.910819 -332.85352 -61.892578 A 0.592825 0.592825 0 0 0 -332.8457 -61.96875 A 0.592825 0.592825 0 0 0 -332.84375 -61.994141 A 0.592825 0.592825 0 0 0 -332.85352 -62.091797 C -332.90756 -71.075381 -340.21084 -78.357422 -349.20703 -78.357422 z M -349.20703 -77.171875 C -340.81817 -77.171876 -334.03125 -70.383003 -334.03125 -61.994141 C -334.03125 -53.605278 -340.81817 -46.818359 -349.20703 -46.818359 C -357.59589 -46.818359 -364.38281 -53.605278 -364.38281 -61.994141 C -364.38281 -70.383003 -357.59589 -77.171876 -349.20703 -77.171875 z "
         id="path4138" />
      <path
         style="color:#000000;font-style:normal;font-variant:normal;font-weight:normal;font-stretch:normal;font-size:medium;line-height:normal;font-family:sans-serif;font-variant-ligatures:normal;font-variant-position:normal;font-variant-caps:normal;font-variant-numeric:normal;font-variant-alternates:normal;font-variant-east-asian:normal;font-feature-settings:normal;font-variation-settings:normal;text-indent:0;text-align:start;text-decoration:none;text-decoration-line:none;text-decoration-style:solid;text-decoration-color:#000000;letter-spacing:normal;word-spacing:normal;text-transform:none;writing-mode:lr-tb;direction:ltr;text-orientation:mixed;dominant-baseline:auto;baseline-shift:baseline;text-anchor:start;white-space:normal;shape-padding:0;shape-margin:0;inline-size:0;clip-rule:nonzero;display:inline;overflow:visible;visibility:visible;isolation:auto;mix-blend-mode:normal;color-interpolation:sRGB;color-interpolation-filters:linearRGB;solid-color:#000000;solid-opacity:1;vector-effect:none;fill:#394364;fill-opacity:1;fill-rule:nonzero;stroke:none;stroke-width:1.18548;stroke-linecap:round;stroke-linejoin:round;stroke-miterlimit:4;stroke-dasharray:none;stroke-dashoffset:0;stroke-opacity:1;paint-order:stroke fill markers;color-rendering:auto;image-rendering:auto;shape-rendering:auto;text-rendering:auto;enable-background:accumulate;stop-color:#000000;stop-opacity:1;opacity:1"
         d="M -341.88672 -70.359375 A 0.59274 0.59274 0 0 0 -342.3125 -70.173828 A 0.59274 0.59274 0 0 0 -342.28906 -69.335938 C -339.28365 -66.503213 -338.30863 -62.128192 -339.82617 -58.287109 C -341.34372 -54.446025 -345.04385 -51.919906 -349.17383 -51.90625 C -353.3038 -51.892594 -357.02154 -54.395598 -358.56445 -58.226562 C -360.10736 -62.057528 -359.16045 -66.436528 -356.17383 -69.289062 A 0.59274 0.59274 0 0 0 -356.1543 -70.126953 A 0.59274 0.59274 0 0 0 -356.99219 -70.146484 C -360.32705 -66.961344 -361.38688 -62.06086 -359.66406 -57.783203 C -357.94125 -53.505548 -353.78145 -50.707407 -349.16992 -50.722656 C -344.55839 -50.737905 -340.41715 -53.562607 -338.72266 -57.851562 C -337.02816 -62.140516 -338.11876 -67.034245 -341.47461 -70.197266 A 0.59274 0.59274 0 0 0 -341.88672 -70.359375 z "
         id="path4142" />
      <path
         style="color:#000000;font-style:normal;font-variant:normal;font-weight:normal;font-stretch:normal;font-size:medium;line-height:normal;font-family:sans-serif;font-variant-ligatures:normal;font-variant-position:normal;font-variant-caps:normal;font-variant-numeric:normal;font-variant-alternates:normal;font-variant-east-asian:normal;font-feature-settings:normal;font-variation-settings:normal;text-indent:0;text-align:start;text-decoration:none;text-decoration-line:none;text-decoration-style:solid;text-decoration-color:#000000;letter-spacing:normal;word-spacing:normal;text-transform:none;writing-mode:lr-tb;direction:ltr;text-orientation:mixed;dominant-baseline:auto;baseline-shift:baseline;text-anchor:start;white-space:normal;shape-padding:0;shape-margin:0;inline-size:0;clip-rule:nonzero;display:inline;overflow:visible;visibility:visible;isolation:auto;mix-blend-mode:normal;color-interpolation:sRGB;color-interpolation-filters:linearRGB;solid-color:#000000;solid-opacity:1;vector-effect:none;fill:#305ff0;fill-opacity:1;fill-rule:nonzero;stroke:none;stroke-width:1.18548;stroke-linecap:round;stroke-linejoin:round;stroke-miterlimit:4;stroke-dasharray:none;stroke-dashoffset:0;stroke-opacity:1;paint-order:markers fill stroke;color-rendering:auto;image-rendering:auto;shape-rendering:auto;text-rendering:auto;enable-background:accumulate;stop-color:#000000;stop-opacity:1;opacity:1"
         d="M -349.20703 -67.255859 C -352.10634 -67.255861 -354.46875 -64.893447 -354.46875 -61.994141 C -354.46875 -59.094835 -352.10634 -56.732421 -349.20703 -56.732422 C -346.38877 -56.732421 -344.11921 -58.977886 -343.99219 -61.765625 A 0.59274 0.59274 0 0 0 -343.94531 -61.994141 A 0.59274 0.59274 0 0 0 -343.99219 -62.226562 C -344.12121 -65.012463 -346.39009 -67.255861 -349.20703 -67.255859 z M -349.20703 -66.070312 C -346.94841 -66.070313 -345.13086 -64.252766 -345.13086 -61.994141 C -345.13086 -59.735516 -346.94841 -57.917968 -349.20703 -57.917969 C -351.46566 -57.917968 -353.2832 -59.735516 -353.2832 -61.994141 C -353.2832 -64.252766 -351.46566 -66.070313 -349.20703 -66.070312 z "
         id="path4146" />
      <path
         id="path1490"
         style="fill:#305ff0;fill-opacity:1;stroke:none;stroke-width:1.18548;stroke-linecap:round;stroke-linejoin:round;stroke-miterlimit:4;stroke-dasharray:none;stroke-opacity:1;paint-order:markers fill stroke"
         d="m -346.59152,-62.195106 a 0.5221101,0.5221101 0 0 1 -0.4815,0.54409 0.5221101,0.5221101 0 0 1 -0.55911,-0.463964 0.5221101,0.5221101 0 0 1 0.44596,-0.573577 0.5221101,0.5221101 0 0 1 0.58746,0.427511 z" />
      <path
         id="path1492"
         style="fill:#305ff0;fill-opacity:1;stroke:none;stroke-width:2.19592;stroke-linecap:round;stroke-linejoin:round;stroke-miterlimit:4;stroke-dasharray:none;stroke-opacity:1;paint-order:markers fill stroke"
         d="m -349.68308,-63.425507 a 0.96713197,0.96713197 0 0 1 -0.8919,1.007846 0.96713197,0.96713197 0 0 1 -1.03568,-0.859426 0.96713197,0.96713197 0 0 1 0.82608,-1.062466 0.96713197,0.96713197 0 0 1 1.08818,0.791901 z" />
      <path
         id="path1494"
         style="fill:#305ff0;fill-opacity:1;stroke:none;stroke-width:1.44712;stroke-linecap:round;stroke-linejoin:round;stroke-miterlimit:4;stroke-dasharray:none;stroke-opacity:1;paint-order:markers fill stroke"
         d="m -348.75472,-60.064398 a 0.63734376,0.63734376 0 0 1 -0.58777,0.664174 0.63734376,0.63734376 0 0 1 -0.68252,-0.566364 0.63734376,0.63734376 0 0 1 0.54439,-0.70017 0.63734376,0.63734376 0 0 1 0.71712,0.521866 z" />
      <path
         id="path1496"
         style="fill:#305ff0;fill-opacity:1;stroke:none;stroke-width:0.555584;stroke-linecap:round;stroke-linejoin:round;stroke-miterlimit:4;stroke-dasharray:none;stroke-opacity:1;paint-order:markers fill stroke"
         transform="rotate(-135)"
         d="m 291.78862,-210.06059 a 1.1325141,1.1325141 0 0 1 -1.04442,1.18019 1.1325141,1.1325141 0 0 1 -1.21278,-1.00638 1.1325141,1.1325141 0 0 1 0.96734,-1.24416 1.1325141,1.1325141 0 0 1 1.27426,0.92732 z" />
      <path
         style="color:#000000;font-style:normal;font-variant:normal;font-weight:normal;font-stretch:normal;font-size:medium;line-height:normal;font-family:sans-serif;font-variant-ligatures:normal;font-variant-position:normal;font-variant-caps:normal;font-variant-numeric:normal;font-variant-alternates:normal;font-variant-east-asian:normal;font-feature-settings:normal;font-variation-settings:normal;text-indent:0;text-align:start;text-decoration:none;text-decoration-line:none;text-decoration-style:solid;text-decoration-color:#000000;letter-spacing:normal;word-spacing:normal;text-transform:none;writing-mode:lr-tb;direction:ltr;text-orientation:mixed;dominant-baseline:auto;baseline-shift:baseline;text-anchor:start;white-space:normal;shape-padding:0;shape-margin:0;inline-size:0;clip-rule:nonzero;display:inline;overflow:visible;visibility:visible;isolation:auto;mix-blend-mode:normal;color-interpolation:sRGB;color-interpolation-filters:linearRGB;solid-color:#000000;solid-opacity:1;vector-effect:none;fill:#305ff0;fill-opacity:1;fill-rule:nonzero;stroke:none;stroke-width:0.555584;stroke-linecap:butt;stroke-linejoin:miter;stroke-miterlimit:4;stroke-dasharray:none;stroke-dashoffset:0;stroke-opacity:1;color-rendering:auto;image-rendering:auto;shape-rendering:auto;text-rendering:auto;enable-background:accumulate;stop-color:#000000;stop-opacity:1;opacity:1"
         d="M -352.61914 -58.847656 L -354.75586 -56.710938 L -354.36328 -56.318359 L -352.22656 -58.453125 L -352.61914 -58.847656 z "
         id="path4150" />
      <path
         id="path1500"
         style="fill:#305ff0;fill-opacity:1;stroke:none;stroke-width:0.555584;stroke-linecap:round;stroke-linejoin:round;stroke-miterlimit:4;stroke-dasharray:none;stroke-opacity:1;paint-order:markers fill stroke"
         transform="matrix(0.149593,-0.98874766,-0.98874766,-0.149593,0,0)"
         d="m 10.30897,347.17219 a 1.1325141,1.1325141 0 0 1 -1.0444199,1.18019 1.1325141,1.1325141 0 0 1 -1.2127831,-1.00639 1.1325141,1.1325141 0 0 1 0.9673423,-1.24415 1.1325141,1.1325141 0 0 1 1.2742617,0.92732 z" />
      <path
         style="color:#000000;font-style:normal;font-variant:normal;font-weight:normal;font-stretch:normal;font-size:medium;line-height:normal;font-family:sans-serif;font-variant-ligatures:normal;font-variant-position:normal;font-variant-caps:normal;font-variant-numeric:normal;font-variant-alternates:normal;font-variant-east-asian:normal;font-feature-settings:normal;font-variation-settings:normal;text-indent:0;text-align:start;text-decoration:none;text-decoration-line:none;text-decoration-style:solid;text-decoration-color:#000000;letter-spacing:normal;word-spacing:normal;text-transform:none;writing-mode:lr-tb;direction:ltr;text-orientation:mixed;dominant-baseline:auto;baseline-shift:baseline;text-anchor:start;white-space:normal;shape-padding:0;shape-margin:0;inline-size:0;clip-rule:nonzero;display:inline;overflow:visible;visibility:visible;isolation:auto;mix-blend-mode:normal;color-interpolation:sRGB;color-interpolation-filters:linearRGB;solid-color:#000000;solid-opacity:1;vector-effect:none;fill:#305ff0;fill-opacity:1;fill-rule:nonzero;stroke:none;stroke-width:0.555584;stroke-linecap:butt;stroke-linejoin:miter;stroke-miterlimit:4;stroke-dasharray:none;stroke-dashoffset:0;stroke-opacity:1;color-rendering:auto;image-rendering:auto;shape-rendering:auto;text-rendering:auto;enable-background:accumulate;stop-color:#000000;stop-opacity:1;opacity:1"
         d="M -344.1543 -61.648438 L -344.23828 -61.097656 L -341.25195 -60.646484 L -341.16797 -61.195312 L -344.1543 -61.648438 z "
         id="path4154" />
      <path
         id="path1504"
         style="fill:#305ff0;fill-opacity:1;stroke:none;stroke-width:0.555584;stroke-linecap:round;stroke-linejoin:round;stroke-miterlimit:4;stroke-dasharray:none;stroke-opacity:1;paint-order:markers fill stroke"
         transform="matrix(0.84493645,-0.5348667,-0.5348667,-0.84493645,0,0)"
         d="m -260.75517,231.79154 a 1.1325141,1.1325141 0 0 1 -1.04442,1.18019 1.1325141,1.1325141 0 0 1 -1.21278,-1.00639 1.1325141,1.1325141 0 0 1 0.96734,-1.24415 1.1325141,1.1325141 0 0 1 1.27426,0.92732 z" />
      <path
         style="color:#000000;font-style:normal;font-variant:normal;font-weight:normal;font-stretch:normal;font-size:medium;line-height:normal;font-family:sans-serif;font-variant-ligatures:normal;font-variant-position:normal;font-variant-caps:normal;font-variant-numeric:normal;font-variant-alternates:normal;font-variant-east-asian:normal;font-feature-settings:normal;font-variation-settings:normal;text-indent:0;text-align:start;text-decoration:none;text-decoration-line:none;text-decoration-style:solid;text-decoration-color:#000000;letter-spacing:normal;word-spacing:normal;text-transform:none;writing-mode:lr-tb;direction:ltr;text-orientation:mixed;dominant-baseline:auto;baseline-shift:baseline;text-anchor:start;white-space:normal;shape-padding:0;shape-margin:0;inline-size:0;clip-rule:nonzero;display:inline;overflow:visible;visibility:visible;isolation:auto;mix-blend-mode:normal;color-interpolation:sRGB;color-interpolation-filters:linearRGB;solid-color:#000000;solid-opacity:1;vector-effect:none;fill:#305ff0;fill-opacity:1;fill-rule:nonzero;stroke:none;stroke-width:0.555584;stroke-linecap:butt;stroke-linejoin:miter;stroke-miterlimit:4;stroke-dasharray:none;stroke-dashoffset:0;stroke-opacity:1;color-rendering:auto;image-rendering:auto;shape-rendering:auto;text-rendering:auto;enable-background:accumulate;stop-color:#000000;stop-opacity:1;opacity:1"
         d="M -346.25391 -57.902344 L -346.72461 -57.605469 L -345.10742 -55.052734 L -344.63867 -55.349609 L -346.25391 -57.902344 z "
         id="path4158" />
      <path
         id="path1508"
         style="fill:#305ff0;fill-opacity:1;stroke:none;stroke-width:0.555584;stroke-linecap:round;stroke-linejoin:round;stroke-miterlimit:4;stroke-dasharray:none;stroke-opacity:1;paint-order:markers fill stroke"
         transform="matrix(-0.95457963,0.29795591,0.29795591,0.95457963,0,0)"
         d="m 315.95604,-170.54931 a 1.1325141,1.1325141 0 0 1 -1.04442,1.18019 1.1325141,1.1325141 0 0 1 -1.21278,-1.00639 1.1325141,1.1325141 0 0 1 0.96734,-1.24415 1.1325141,1.1325141 0 0 1 1.27426,0.92732 z" />
      <path
         style="color:#000000;font-style:normal;font-variant:normal;font-weight:normal;font-stretch:normal;font-size:medium;line-height:normal;font-family:sans-serif;font-variant-ligatures:normal;font-variant-position:normal;font-variant-caps:normal;font-variant-numeric:normal;font-variant-alternates:normal;font-variant-east-asian:normal;font-feature-settings:normal;font-variation-settings:normal;text-indent:0;text-align:start;text-decoration:none;text-decoration-line:none;text-decoration-style:solid;text-decoration-color:#000000;letter-spacing:normal;word-spacing:normal;text-transform:none;writing-mode:lr-tb;direction:ltr;text-orientation:mixed;dominant-baseline:auto;baseline-shift:baseline;text-anchor:start;white-space:normal;shape-padding:0;shape-margin:0;inline-size:0;clip-rule:nonzero;display:inline;overflow:visible;visibility:visible;isolation:auto;mix-blend-mode:normal;color-interpolation:sRGB;color-interpolation-filters:linearRGB;solid-color:#000000;solid-opacity:1;vector-effect:none;fill:#305ff0;fill-opacity:1;fill-rule:nonzero;stroke:none;stroke-width:0.555584;stroke-linecap:butt;stroke-linejoin:miter;stroke-miterlimit:4;stroke-dasharray:none;stroke-dashoffset:0;stroke-opacity:1;color-rendering:auto;image-rendering:auto;shape-rendering:auto;text-rendering:auto;enable-background:accumulate;stop-color:#000000;stop-opacity:1;opacity:1"
         d="M -351.29688 -69.734375 L -351.82617 -69.568359 L -350.92773 -66.685547 L -350.39648 -66.851562 L -351.29688 -69.734375 z "
         id="path4162" />
      <path
         id="path1512"
         style="fill:#305ff0;fill-opacity:1;stroke:none;stroke-width:0.555584;stroke-linecap:round;stroke-linejoin:round;stroke-miterlimit:4;stroke-dasharray:none;stroke-opacity:1;paint-order:markers fill stroke"
         transform="matrix(-0.13197218,0.99125342,0.99125342,0.13197218,0,0)"
         d="m -14.105823,-361.78283 a 1.1325141,1.1325141 0 0 1 -1.04442,1.18019 1.1325141,1.1325141 0 0 1 -1.212783,-1.00639 1.1325141,1.1325141 0 0 1 0.967342,-1.24415 1.1325141,1.1325141 0 0 1 1.274262,0.92732 z" />
      <path
         style="color:#000000;font-style:normal;font-variant:normal;font-weight:normal;font-stretch:normal;font-size:medium;line-height:normal;font-family:sans-serif;font-variant-ligatures:normal;font-variant-position:normal;font-variant-caps:normal;font-variant-numeric:normal;font-variant-alternates:normal;font-variant-east-asian:normal;font-feature-settings:normal;font-variation-settings:normal;text-indent:0;text-align:start;text-decoration:none;text-decoration-line:none;text-decoration-style:solid;text-decoration-color:#000000;letter-spacing:normal;word-spacing:normal;text-transform:none;writing-mode:lr-tb;direction:ltr;text-orientation:mixed;dominant-baseline:auto;baseline-shift:baseline;text-anchor:start;white-space:normal;shape-padding:0;shape-margin:0;inline-size:0;clip-rule:nonzero;display:inline;overflow:visible;visibility:visible;isolation:auto;mix-blend-mode:normal;color-interpolation:sRGB;color-interpolation-filters:linearRGB;solid-color:#000000;solid-opacity:1;vector-effect:none;fill:#305ff0;fill-opacity:1;fill-rule:nonzero;stroke:none;stroke-width:0.555584;stroke-linecap:butt;stroke-linejoin:miter;stroke-miterlimit:4;stroke-dasharray:none;stroke-dashoffset:0;stroke-opacity:1;color-rendering:auto;image-rendering:auto;shape-rendering:auto;text-rendering:auto;enable-background:accumulate;stop-color:#000000;stop-opacity:1;opacity:1"
         d="M -357.25586 -63.199219 L -357.32812 -62.648438 L -354.33398 -62.25 L -354.26172 -62.800781 L -357.25586 -63.199219 z "
         id="path4166" />
      <path
         style="color:#000000;font-style:normal;font-variant:normal;font-weight:normal;font-stretch:normal;font-size:medium;line-height:normal;font-family:sans-serif;font-variant-ligatures:normal;font-variant-position:normal;font-variant-caps:normal;font-variant-numeric:normal;font-variant-alternates:normal;font-variant-east-asian:normal;font-feature-settings:normal;font-variation-settings:normal;text-indent:0;text-align:start;text-decoration:none;text-decoration-line:none;text-decoration-style:solid;text-decoration-color:#000000;letter-spacing:normal;word-spacing:normal;text-transform:none;writing-mode:lr-tb;direction:ltr;text-orientation:mixed;dominant-baseline:auto;baseline-shift:baseline;text-anchor:start;white-space:normal;shape-padding:0;shape-margin:0;inline-size:0;clip-rule:nonzero;display:inline;overflow:visible;visibility:visible;isolation:auto;mix-blend-mode:normal;color-interpolation:sRGB;color-interpolation-filters:linearRGB;solid-color:#000000;solid-opacity:1;vector-effect:none;fill:#394364;fill-opacity:1;fill-rule:nonzero;stroke:none;stroke-width:1.18565;stroke-linecap:round;stroke-linejoin:round;stroke-miterlimit:4;stroke-dasharray:none;stroke-dashoffset:0;stroke-opacity:1;paint-order:stroke fill markers;color-rendering:auto;image-rendering:auto;shape-rendering:auto;text-rendering:auto;enable-background:accumulate;stop-color:#000000;stop-opacity:1;opacity:1"
         d="M -349.20703 -78.357422 C -358.23667 -78.357422 -365.56836 -71.023776 -365.56836 -61.994141 C -365.56836 -52.964506 -358.23667 -45.632812 -349.20703 -45.632812 C -340.21217 -45.632812 -332.90969 -52.910819 -332.85352 -61.892578 A 0.592825 0.592825 0 0 0 -332.8457 -61.96875 A 0.592825 0.592825 0 0 0 -332.84375 -61.994141 A 0.592825 0.592825 0 0 0 -332.85352 -62.091797 C -332.90756 -71.075381 -340.21084 -78.357422 -349.20703 -78.357422 z M -349.20703 -77.171875 C -340.81817 -77.171876 -334.03125 -70.383003 -334.03125 -61.994141 C -334.03125 -53.605278 -340.81817 -46.818359 -349.20703 -46.818359 C -357.59589 -46.818359 -364.38281 -53.605278 -364.38281 -61.994141 C -364.38281 -70.383003 -357.59589 -77.171876 -349.20703 -77.171875 z "
         id="path4170" />
    </g>
  </g>
</svg>
